<svg width="181" height="38" viewBox="0 0 181 38" fill="none" xmlns="http://www.w3.org/2000/svg">
<path d="M10.5281 10.0835C10.4627 9.4246 10.1823 8.91276 9.68679 8.54794C9.19129 8.18312 8.51882 8.00071 7.66939 8.00071C7.09221 8.00071 6.60488 8.08239 6.20739 8.24574C5.8099 8.40365 5.50497 8.62417 5.29261 8.90731C5.0857 9.19046 4.98224 9.51172 4.98224 9.87109C4.97135 10.1706 5.03397 10.4319 5.1701 10.6552C5.31167 10.8784 5.50497 11.0717 5.75 11.2351C5.99503 11.393 6.27817 11.5318 6.59943 11.6516C6.92069 11.766 7.26373 11.864 7.62855 11.9457L9.13139 12.305C9.86103 12.4684 10.5308 12.6862 11.1406 12.9585C11.7505 13.2307 12.2786 13.5656 12.7251 13.9631C13.1716 14.3606 13.5174 14.8288 13.7624 15.3679C14.0129 15.907 14.1409 16.525 14.1463 17.2219C14.1409 18.2456 13.8795 19.1332 13.3622 19.8846C12.8504 20.6306 12.1098 21.2105 11.1406 21.6243C10.1768 22.0327 9.01432 22.2369 7.65305 22.2369C6.30268 22.2369 5.12654 22.0299 4.12464 21.6161C3.1282 21.2023 2.34955 20.5897 1.78871 19.7784C1.23331 18.9616 0.941998 17.9516 0.914773 16.7482H4.337C4.37512 17.3091 4.53575 17.7773 4.81889 18.1531C5.10748 18.5233 5.49136 18.8037 5.97053 18.9943C6.45514 19.1795 7.00237 19.272 7.61222 19.272C8.21117 19.272 8.73118 19.1849 9.17223 19.0107C9.61873 18.8364 9.96449 18.5941 10.2095 18.2837C10.4545 17.9734 10.5771 17.6167 10.5771 17.2138C10.5771 16.8381 10.4654 16.5223 10.2422 16.2663C10.0244 16.0104 9.70313 15.7926 9.27841 15.6129C8.85914 15.4332 8.34458 15.2699 7.73473 15.1229L5.91335 14.6655C4.50308 14.3224 3.38956 13.7861 2.5728 13.0565C1.75604 12.3268 1.35038 11.344 1.35582 10.108C1.35038 9.09517 1.61991 8.21035 2.16442 7.45348C2.71437 6.69661 3.46851 6.10582 4.42685 5.68111C5.38518 5.25639 6.4742 5.04403 7.69389 5.04403C8.93537 5.04403 10.0189 5.25639 10.9446 5.68111C11.8757 6.10582 12.5999 6.69661 13.1172 7.45348C13.6345 8.21035 13.9013 9.087 13.9176 10.0835H10.5281ZM22.1281 22.245C20.8431 22.245 19.7377 21.9728 18.8121 21.4283C17.8918 20.8783 17.184 20.116 16.6885 19.1413C16.1984 18.1667 15.9534 17.045 15.9534 15.7763C15.9534 14.4912 16.2011 13.3641 16.6966 12.3949C17.1976 11.4202 17.9082 10.6606 18.8284 10.1161C19.7486 9.56617 20.8431 9.29119 22.1118 9.29119C23.2062 9.29119 24.1646 9.48994 24.9868 9.88743C25.809 10.2849 26.4597 10.843 26.9388 11.5618C27.418 12.2805 27.6821 13.1245 27.7311 14.0938H24.4477C24.3551 13.4676 24.1101 12.9639 23.7126 12.5827C23.3206 12.1961 22.806 12.0028 22.1689 12.0028C21.6299 12.0028 21.1589 12.1499 20.7559 12.4439C20.3585 12.7325 20.0481 13.1545 19.8248 13.7099C19.6016 14.2653 19.49 14.9377 19.49 15.7273C19.49 16.5277 19.5989 17.2083 19.8167 17.7692C20.0399 18.33 20.353 18.7575 20.7559 19.0515C21.1589 19.3455 21.6299 19.4925 22.1689 19.4925C22.5664 19.4925 22.9231 19.4109 23.2389 19.2475C23.5602 19.0842 23.8242 18.8473 24.0312 18.5369C24.2435 18.2211 24.3824 17.8427 24.4477 17.4016H27.7311C27.6766 18.36 27.4153 19.204 26.947 19.9336C26.4842 20.6578 25.8444 21.2241 25.0276 21.6325C24.2108 22.0408 23.2443 22.245 22.1281 22.245ZM29.9588 22V9.45455H33.332V11.6435H33.4627C33.6914 10.8648 34.0753 10.2768 34.6143 9.87926C35.1534 9.47633 35.7741 9.27486 36.4766 9.27486C36.6508 9.27486 36.8387 9.28575 37.0401 9.30753C37.2416 9.32931 37.4186 9.35926 37.571 9.39737V12.4847C37.4077 12.4357 37.1817 12.3922 36.8931 12.354C36.6045 12.3159 36.3404 12.2969 36.1009 12.2969C35.589 12.2969 35.1316 12.4085 34.7287 12.6317C34.3312 12.8495 34.0154 13.1545 33.7812 13.5465C33.5526 13.9386 33.4382 14.3905 33.4382 14.9023V22H29.9588ZM47.415 16.6584V9.45455H50.8944V22H47.5539V19.7212H47.4232C47.1401 20.4563 46.6691 21.0471 46.0102 21.4936C45.3568 21.9401 44.5591 22.1634 43.6171 22.1634C42.7786 22.1634 42.0407 21.9728 41.4037 21.5916C40.7666 21.2105 40.2684 20.6687 39.909 19.9663C39.5551 19.2638 39.3754 18.4226 39.3699 17.4425V9.45455H42.8493V16.8217C42.8548 17.5623 43.0535 18.1476 43.4456 18.5778C43.8376 19.0079 44.3631 19.223 45.0219 19.223C45.4412 19.223 45.8332 19.1277 46.1981 18.9371C46.5629 18.7411 46.8569 18.4525 47.0802 18.0714C47.3089 17.6902 47.4205 17.2192 47.415 16.6584ZM53.6776 22V9.45455H56.9936V11.668H57.1406C57.402 10.9329 57.8376 10.353 58.4474 9.92827C59.0573 9.50355 59.7869 9.29119 60.6364 9.29119C61.4967 9.29119 62.229 9.50627 62.8335 9.93643C63.4379 10.3611 63.8408 10.9383 64.0423 11.668H64.1729C64.4289 10.9492 64.8917 10.3748 65.5614 9.9446C66.2366 9.509 67.0343 9.29119 67.9545 9.29119C69.1252 9.29119 70.0754 9.66418 70.805 10.4102C71.5401 11.1507 71.9077 12.2016 71.9077 13.5629V22H68.4364V14.2489C68.4364 13.552 68.2513 13.0292 67.881 12.6808C67.5108 12.3323 67.0479 12.158 66.4925 12.158C65.8609 12.158 65.3681 12.3595 65.0142 12.7624C64.6603 13.1599 64.4833 13.6854 64.4833 14.3388V22H61.1101V14.1754C61.1101 13.5601 60.9331 13.0701 60.5792 12.7053C60.2307 12.3404 59.7706 12.158 59.1989 12.158C58.8123 12.158 58.4638 12.256 58.1534 12.4521C57.8485 12.6426 57.6062 12.9122 57.4265 13.2607C57.2468 13.6037 57.157 14.0066 57.157 14.4695V22H53.6776ZM74.7214 22V5.27273H81.3208C82.5895 5.27273 83.6704 5.51503 84.5634 5.99964C85.4564 6.47881 86.137 7.14583 86.6053 8.00071C87.079 8.85014 87.3159 9.83026 87.3159 10.9411C87.3159 12.0518 87.0763 13.032 86.5971 13.8814C86.118 14.7308 85.4237 15.3924 84.5144 15.8661C83.6105 16.3398 82.516 16.5767 81.231 16.5767H77.0247V13.7425H80.6593C81.3399 13.7425 81.9007 13.6255 82.3418 13.3913C82.7883 13.1518 83.1204 12.8223 83.3382 12.4031C83.5615 11.9783 83.6731 11.491 83.6731 10.9411C83.6731 10.3857 83.5615 9.90104 83.3382 9.48722C83.1204 9.06794 82.7883 8.74396 82.3418 8.51527C81.8953 8.28113 81.329 8.16406 80.6429 8.16406H78.258V22H74.7214ZM95.0138 22.245C93.7451 22.245 92.648 21.9755 91.7223 21.4364C90.8021 20.8919 90.0915 20.1351 89.5906 19.1658C89.0896 18.1912 88.8391 17.0613 88.8391 15.7763C88.8391 14.4804 89.0896 13.3478 89.5906 12.3786C90.0915 11.4039 90.8021 10.647 91.7223 10.108C92.648 9.56345 93.7451 9.29119 95.0138 9.29119C96.2826 9.29119 97.377 9.56345 98.2972 10.108C99.2229 10.647 99.9362 11.4039 100.437 12.3786C100.938 13.3478 101.189 14.4804 101.189 15.7763C101.189 17.0613 100.938 18.1912 100.437 19.1658C99.9362 20.1351 99.2229 20.8919 98.2972 21.4364C97.377 21.9755 96.2826 22.245 95.0138 22.245ZM95.0302 19.5497C95.6074 19.5497 96.0893 19.3864 96.4759 19.0597C96.8625 18.7275 97.1538 18.2756 97.3498 17.7038C97.5513 17.1321 97.652 16.4814 97.652 15.7518C97.652 15.0221 97.5513 14.3714 97.3498 13.7997C97.1538 13.228 96.8625 12.776 96.4759 12.4439C96.0893 12.1117 95.6074 11.9457 95.0302 11.9457C94.4476 11.9457 93.9575 12.1117 93.56 12.4439C93.168 12.776 92.8712 13.228 92.6697 13.7997C92.4737 14.3714 92.3757 15.0221 92.3757 15.7518C92.3757 16.4814 92.4737 17.1321 92.6697 17.7038C92.8712 18.2756 93.168 18.7275 93.56 19.0597C93.9575 19.3864 94.4476 19.5497 95.0302 19.5497ZM106.604 18.3899L106.612 14.2163H107.118L111.137 9.45455H115.131L109.732 15.7599H108.907L106.604 18.3899ZM103.451 22V5.27273H106.93V22H103.451ZM111.292 22L107.6 16.5359L109.92 14.0774L115.368 22H111.292ZM122.038 22.245C120.748 22.245 119.637 21.9837 118.706 21.4609C117.78 20.9328 117.067 20.1868 116.566 19.223C116.065 18.2538 115.815 17.1076 115.815 15.7844C115.815 14.494 116.065 13.3614 116.566 12.3867C117.067 11.4121 117.772 10.6525 118.682 10.108C119.596 9.56345 120.669 9.29119 121.9 9.29119C122.727 9.29119 123.498 9.4246 124.211 9.69141C124.93 9.95277 125.556 10.3475 126.09 10.8757C126.629 11.4039 127.048 12.0682 127.347 12.8686C127.647 13.6636 127.797 14.5947 127.797 15.6619V16.6175H117.203V14.4613H124.521C124.521 13.9603 124.412 13.5166 124.195 13.13C123.977 12.7434 123.675 12.4412 123.288 12.2234C122.907 12.0001 122.463 11.8885 121.957 11.8885C121.429 11.8885 120.96 12.011 120.552 12.256C120.149 12.4956 119.833 12.8196 119.604 13.228C119.376 13.6309 119.259 14.0801 119.253 14.5756V16.6257C119.253 17.2464 119.368 17.7828 119.596 18.2347C119.83 18.6867 120.16 19.0352 120.585 19.2802C121.009 19.5252 121.513 19.6477 122.096 19.6477C122.482 19.6477 122.836 19.5933 123.157 19.4844C123.479 19.3755 123.754 19.2121 123.982 18.9943C124.211 18.7765 124.385 18.5097 124.505 18.1939L127.723 18.4062C127.56 19.1795 127.225 19.8546 126.718 20.4318C126.218 21.0036 125.57 21.45 124.775 21.7713C123.985 22.0871 123.073 22.245 122.038 22.245ZM130.067 22V9.45455H133.44V11.6435H133.571C133.8 10.8648 134.184 10.2768 134.723 9.87926C135.262 9.47633 135.883 9.27486 136.585 9.27486C136.759 9.27486 136.947 9.28575 137.149 9.30753C137.35 9.32931 137.527 9.35926 137.679 9.39737V12.4847C137.516 12.4357 137.29 12.3922 137.002 12.354C136.713 12.3159 136.449 12.2969 136.209 12.2969C135.697 12.2969 135.24 12.4085 134.837 12.6317C134.44 12.8495 134.124 13.1545 133.89 13.5465C133.661 13.9386 133.547 14.3905 133.547 14.9023V22H130.067ZM151.556 9.45455L147.17 22H143.25L138.864 9.45455H142.539L145.145 18.4308H145.275L147.873 9.45455H151.556ZM158.65 22.245C157.359 22.245 156.248 21.9837 155.317 21.4609C154.392 20.9328 153.678 20.1868 153.177 19.223C152.677 18.2538 152.426 17.1076 152.426 15.7844C152.426 14.494 152.677 13.3614 153.177 12.3867C153.678 11.4121 154.384 10.6525 155.293 10.108C156.208 9.56345 157.28 9.29119 158.511 9.29119C159.339 9.29119 160.109 9.4246 160.822 9.69141C161.541 9.95277 162.167 10.3475 162.701 10.8757C163.24 11.4039 163.659 12.0682 163.959 12.8686C164.258 13.6636 164.408 14.5947 164.408 15.6619V16.6175H153.815V14.4613H161.133C161.133 13.9603 161.024 13.5166 160.806 13.13C160.588 12.7434 160.286 12.4412 159.899 12.2234C159.518 12.0001 159.074 11.8885 158.568 11.8885C158.04 11.8885 157.572 12.011 157.163 12.256C156.76 12.4956 156.445 12.8196 156.216 13.228C155.987 13.6309 155.87 14.0801 155.865 14.5756V16.6257C155.865 17.2464 155.979 17.7828 156.208 18.2347C156.442 18.6867 156.771 19.0352 157.196 19.2802C157.621 19.5252 158.124 19.6477 158.707 19.6477C159.094 19.6477 159.447 19.5933 159.769 19.4844C160.09 19.3755 160.365 19.2121 160.594 18.9943C160.822 18.7765 160.997 18.5097 161.116 18.1939L164.334 18.4062C164.171 19.1795 163.836 19.8546 163.33 20.4318C162.829 21.0036 162.181 21.45 161.386 21.7713C160.596 22.0871 159.684 22.245 158.65 22.245ZM170.158 5.27273V22H166.679V5.27273H170.158Z" fill="#FFE143"/>
<path d="M2 22.2122C61.6694 40.4473 127.822 37.5215 179.892 16" stroke="#FFE143" stroke-width="2"/>
</svg>
